<svg preserveAspectRatio="none" width="100%" height="100%" overflow="visible" style="display: block;" viewBox="0 0 17.503 17.4849" fill="none" xmlns="http://www.w3.org/2000/svg">
<path id="Vector" d="M13.75 4.98486C13.75 5.23208 13.6767 5.47376 13.5393 5.67932C13.402 5.88488 13.2068 6.0451 12.9784 6.13971C12.75 6.23431 12.4986 6.25907 12.2561 6.21084C12.0137 6.16261 11.7909 6.04355 11.6161 5.86874C11.4413 5.69392 11.3223 5.47119 11.274 5.22872C11.2258 4.98624 11.2505 4.73491 11.3452 4.5065C11.4398 4.27809 11.6 4.08287 11.8055 3.94552C12.0111 3.80817 12.2528 3.73486 12.5 3.73486C12.8315 3.73486 13.1495 3.86655 13.3839 4.10097C13.6183 4.33539 13.75 4.65334 13.75 4.98486ZM17.5 6.76142C17.4387 8.4611 16.7222 10.0712 15.5006 11.2545C14.2789 12.4378 12.6469 13.1027 10.9461 13.1099H10.9375C10.3121 13.1108 9.6899 13.0219 9.08985 12.8458L8.47579 13.4606C8.38866 13.5477 8.28524 13.6167 8.17143 13.6637C8.05762 13.7108 7.93566 13.735 7.81251 13.7349H6.87501V14.6724C6.87501 14.921 6.77623 15.1595 6.60042 15.3353C6.4246 15.5111 6.18615 15.6099 5.93751 15.6099H5.00001V16.5474C5.00001 16.796 4.90123 17.0345 4.72542 17.2103C4.5496 17.3861 4.31115 17.4849 4.06251 17.4849H1.56251C1.14811 17.4849 0.750677 17.3202 0.457651 17.0272C0.164626 16.7342 5.68902e-06 16.3368 5.68902e-06 15.9224V13.6809C-0.000550139 13.4757 0.0396284 13.2724 0.118214 13.0827C0.196799 12.8931 0.31223 12.721 0.457818 12.5763L4.63907 8.39501C4.37424 7.48435 4.30994 6.5271 4.4506 5.5892C4.59126 4.6513 4.93353 3.75503 5.45385 2.96211C5.97416 2.1692 6.66016 1.49848 7.46459 0.996148C8.26902 0.493818 9.17277 0.171812 10.1136 0.0523083C11.0544 -0.0671959 12.01 0.0186409 12.9145 0.303907C13.8189 0.589173 14.6508 1.06709 15.3528 1.70474C16.0549 2.3424 16.6104 3.12464 16.981 3.99759C17.3517 4.87054 17.5288 5.81346 17.5 6.76142ZM14.2524 3.23251C13.8001 2.77619 13.2581 2.4186 12.6607 2.18234C12.0632 1.94608 11.4233 1.83627 10.7813 1.85986C8.28126 1.93798 6.25001 4.03876 6.25001 6.53876C6.24807 7.13224 6.35944 7.72064 6.57813 8.27236C6.65185 8.44459 6.67226 8.63496 6.63676 8.81892C6.60125 9.00287 6.51144 9.17196 6.37891 9.30439L1.87501 13.813V15.6099H3.12501V14.6724C3.12501 14.4237 3.22378 14.1853 3.39959 14.0094C3.57541 13.8336 3.81387 13.7349 4.06251 13.7349H5.00001V12.7974C5.00001 12.5487 5.09878 12.3103 5.27459 12.1344C5.45041 11.9586 5.68887 11.8599 5.93751 11.8599H7.42188L8.17579 11.1059C8.30828 10.9733 8.47751 10.8834 8.66162 10.8478C8.84573 10.8123 9.03627 10.8328 9.2086 10.9067C9.7588 11.125 10.3456 11.2364 10.9375 11.2349H10.9438C13.4438 11.2349 15.543 9.19814 15.6227 6.70361C15.6462 6.06178 15.5366 5.42203 15.3008 4.82464C15.065 4.22725 14.708 3.68516 14.2524 3.23251Z" fill="var(--fill-0, #364C4E)"/>
</svg>
