<svg preserveAspectRatio="none" width="100%" height="100%" overflow="visible" style="display: block;" viewBox="0 0 16.875 14.375" fill="none" xmlns="http://www.w3.org/2000/svg">
<path id="Vector" d="M15.3125 0H1.5625C1.1481 0 0.750671 0.16462 0.457646 0.457646C0.16462 0.750671 0 1.1481 0 1.5625V12.8125C0 13.2269 0.16462 13.6243 0.457646 13.9174C0.750671 14.2104 1.1481 14.375 1.5625 14.375H15.3125C15.7269 14.375 16.1243 14.2104 16.4174 13.9174C16.7104 13.6243 16.875 13.2269 16.875 12.8125V1.5625C16.875 1.1481 16.7104 0.750671 16.4174 0.457646C16.1243 0.16462 15.7269 0 15.3125 0ZM15 12.5H1.875V1.875H15V12.5ZM3.75 4.375C3.75 4.12636 3.84877 3.8879 4.02459 3.71209C4.2004 3.53627 4.43886 3.4375 4.6875 3.4375H12.1875C12.4361 3.4375 12.6746 3.53627 12.8504 3.71209C13.0262 3.8879 13.125 4.12636 13.125 4.375C13.125 4.62364 13.0262 4.8621 12.8504 5.03791C12.6746 5.21373 12.4361 5.3125 12.1875 5.3125H4.6875C4.43886 5.3125 4.2004 5.21373 4.02459 5.03791C3.84877 4.8621 3.75 4.62364 3.75 4.375ZM3.75 7.1875C3.75 6.93886 3.84877 6.7004 4.02459 6.52459C4.2004 6.34877 4.43886 6.25 4.6875 6.25H12.1875C12.4361 6.25 12.6746 6.34877 12.8504 6.52459C13.0262 6.7004 13.125 6.93886 13.125 7.1875C13.125 7.43614 13.0262 7.6746 12.8504 7.85041C12.6746 8.02623 12.4361 8.125 12.1875 8.125H4.6875C4.43886 8.125 4.2004 8.02623 4.02459 7.85041C3.84877 7.6746 3.75 7.43614 3.75 7.1875ZM3.75 10C3.75 9.75136 3.84877 9.5129 4.02459 9.33709C4.2004 9.16127 4.43886 9.0625 4.6875 9.0625H12.1875C12.4361 9.0625 12.6746 9.16127 12.8504 9.33709C13.0262 9.5129 13.125 9.75136 13.125 10C13.125 10.2486 13.0262 10.4871 12.8504 10.6629C12.6746 10.8387 12.4361 10.9375 12.1875 10.9375H4.6875C4.43886 10.9375 4.2004 10.8387 4.02459 10.6629C3.84877 10.4871 3.75 10.2486 3.75 10Z" fill="var(--fill-0, #364C4E)"/>
</svg>
