<svg preserveAspectRatio="none" width="100%" height="100%" overflow="visible" style="display: block;" viewBox="0 0 18.1251 13.1241" fill="none" xmlns="http://www.w3.org/2000/svg">
<path id="Vector" d="M8.39927 8.39832L15.2743 1.52332C15.3615 1.43612 15.465 1.36694 15.5789 1.31975C15.6929 1.27255 15.815 1.24826 15.9383 1.24826C16.0617 1.24826 16.1838 1.27255 16.2977 1.31975C16.4117 1.36694 16.5152 1.43612 16.6024 1.52332C16.6896 1.61053 16.7588 1.71406 16.806 1.828C16.8532 1.94194 16.8775 2.06406 16.8775 2.18738C16.8775 2.31071 16.8532 2.43283 16.806 2.54677C16.7588 2.66071 16.6896 2.76424 16.6024 2.85145L9.72739 9.72645C9.64019 9.81365 9.53666 9.88283 9.42272 9.93002C9.30878 9.97722 9.18666 10.0015 9.06333 10.0015C8.94 10.0015 8.81788 9.97722 8.70394 9.93002C8.59 9.88283 8.48648 9.81365 8.39927 9.72645C8.31206 9.63924 8.24289 9.53571 8.19569 9.42177C8.1485 9.30783 8.12421 9.18571 8.12421 9.06238C8.12421 8.93906 8.1485 8.81694 8.19569 8.703C8.24289 8.58906 8.31206 8.48553 8.39927 8.39832ZM9.51099 5.02332C9.63484 5.03986 9.76075 5.03147 9.88132 4.99865C10.0019 4.96582 10.1147 4.90923 10.2131 4.83219C10.3114 4.75516 10.3934 4.65923 10.4542 4.55005C10.515 4.44087 10.5533 4.32065 10.567 4.19644C10.5806 4.07223 10.5693 3.94655 10.5336 3.82678C10.498 3.70702 10.4388 3.59558 10.3595 3.49902C10.2802 3.40246 10.1824 3.32274 10.0718 3.26452C9.96125 3.20631 9.84017 3.17079 9.71568 3.16004C9.4988 3.13593 9.28076 3.12394 9.06255 3.1241C7.48834 3.12576 5.97907 3.75185 4.86593 4.86498C3.75279 5.97812 3.12671 7.48739 3.12505 9.0616C3.12505 9.31024 3.22382 9.5487 3.39964 9.72452C3.57545 9.90033 3.81391 9.9991 4.06255 9.9991C4.31119 9.9991 4.54965 9.90033 4.72546 9.72452C4.90128 9.5487 5.00005 9.31024 5.00005 9.0616C5.00129 7.98454 5.4297 6.95195 6.1913 6.19035C6.9529 5.42875 7.98549 5.00034 9.06255 4.9991C9.21235 4.99932 9.36204 5.0074 9.51099 5.02332ZM17.4438 5.60926C17.3486 5.37937 17.166 5.19672 16.9361 5.10149C16.7062 5.00625 16.4479 5.00624 16.218 5.10145C15.9881 5.19666 15.8055 5.37929 15.7102 5.60917C15.615 5.83905 15.615 6.09734 15.7102 6.32723C16.3519 7.89357 16.4233 9.63553 15.9118 11.2491H2.21411C1.87383 10.1714 1.79181 9.02882 1.97468 7.91359C2.15756 6.79836 2.60019 5.74178 3.26682 4.82921C3.93345 3.91664 4.80539 3.17367 5.81219 2.66033C6.819 2.14698 7.93243 1.87765 9.06255 1.8741H9.12818C10.0452 1.88087 10.9523 2.06415 11.8001 2.41395C12.0293 2.50557 12.2855 2.50303 12.513 2.40689C12.7404 2.31074 12.9207 2.12874 13.0148 1.90043C13.1088 1.67211 13.109 1.41592 13.0152 1.18748C12.9215 0.959036 12.7414 0.776803 12.5141 0.680353C10.8962 0.0156313 9.12064 -0.166997 7.40133 0.15448C5.68201 0.475957 4.09237 1.28782 2.82398 2.49221C1.55559 3.69661 0.662589 5.24214 0.252613 6.94252C-0.157362 8.64291 -0.0668187 10.4256 0.513332 12.0757C0.620947 12.3814 0.82059 12.6464 1.08484 12.8341C1.34908 13.0218 1.66497 13.1231 1.98911 13.1241H16.1352C16.4589 13.1235 16.7745 13.0227 17.0386 12.8356C17.3027 12.6484 17.5024 12.384 17.6102 12.0788C18.35 9.97485 18.2908 7.67239 17.4438 5.60926Z" fill="var(--fill-0, #364C4E)"/>
</svg>
