<svg preserveAspectRatio="none" width="100%" height="100%" overflow="visible" style="display: block;" viewBox="0 0 15.6261 15.625" fill="none" xmlns="http://www.w3.org/2000/svg">
<path id="Vector" d="M6.875 14.6875C6.875 14.9361 6.77623 15.1746 6.60041 15.3504C6.4246 15.5262 6.18614 15.625 5.9375 15.625H0.9375C0.68886 15.625 0.450403 15.5262 0.274587 15.3504C0.0987719 15.1746 0 14.9361 0 14.6875V0.9375C0 0.68886 0.0987719 0.450403 0.274587 0.274587C0.450403 0.0987721 0.68886 0 0.9375 0H5.9375C6.18614 0 6.4246 0.0987721 6.60041 0.274587C6.77623 0.450403 6.875 0.68886 6.875 0.9375C6.875 1.18614 6.77623 1.4246 6.60041 1.60041C6.4246 1.77623 6.18614 1.875 5.9375 1.875H1.875V13.75H5.9375C6.18614 13.75 6.4246 13.8488 6.60041 14.0246C6.77623 14.2004 6.875 14.4389 6.875 14.6875ZM15.3508 7.14922L12.2258 4.02422C12.0497 3.8481 11.8108 3.74915 11.5617 3.74915C11.3126 3.74915 11.0738 3.8481 10.8977 4.02422C10.7215 4.20034 10.6226 4.43921 10.6226 4.68828C10.6226 4.93735 10.7215 5.17622 10.8977 5.35234L12.4219 6.875H5.9375C5.68886 6.875 5.4504 6.97377 5.27459 7.14959C5.09877 7.3254 5 7.56386 5 7.8125C5 8.06114 5.09877 8.2996 5.27459 8.47541C5.4504 8.65123 5.68886 8.75 5.9375 8.75H12.4219L10.8969 10.2742C10.7208 10.4503 10.6218 10.6892 10.6218 10.9383C10.6218 11.1874 10.7208 11.4262 10.8969 11.6023C11.073 11.7785 11.3119 11.8774 11.5609 11.8774C11.81 11.8774 12.0489 11.7785 12.225 11.6023L15.35 8.47734C15.4375 8.3903 15.5069 8.28685 15.5542 8.17292C15.6016 8.05899 15.6261 7.93683 15.6261 7.81344C15.6262 7.69005 15.6019 7.56787 15.5547 7.45388C15.5074 7.3399 15.4381 7.23637 15.3508 7.14922Z" fill="var(--fill-0, #364C4E)"/>
</svg>
