<svg preserveAspectRatio="none" width="100%" height="100%" overflow="visible" style="display: block;" viewBox="0 0 16.875 13.125" fill="none" xmlns="http://www.w3.org/2000/svg">
<path id="Vector" d="M14.6875 0H2.1875C1.60734 0 1.05094 0.230468 0.640704 0.640704C0.230468 1.05094 0 1.60734 0 2.1875V10.9375C0 11.5177 0.230468 12.0741 0.640704 12.4843C1.05094 12.8945 1.60734 13.125 2.1875 13.125H14.6875C14.9748 13.125 15.2592 13.0684 15.5246 12.9585C15.79 12.8486 16.0312 12.6874 16.2343 12.4843C16.4374 12.2812 16.5986 12.04 16.7085 11.7746C16.8184 11.5092 16.875 11.2248 16.875 10.9375V2.1875C16.875 1.90023 16.8184 1.61578 16.7085 1.35038C16.5986 1.08498 16.4374 0.843832 16.2343 0.640704C16.0312 0.437576 15.79 0.276446 15.5246 0.166514C15.2592 0.0565815 14.9748 0 14.6875 0ZM2.1875 1.875H14.6875C14.7704 1.875 14.8499 1.90792 14.9085 1.96653C14.9671 2.02513 15 2.10462 15 2.1875V3.4375H10.9375C10.6889 3.4375 10.4504 3.53627 10.2746 3.71209C10.0988 3.8879 10 4.12636 10 4.375C10 4.7894 9.83538 5.18683 9.54235 5.47985C9.24933 5.77288 8.8519 5.9375 8.4375 5.9375C8.0231 5.9375 7.62567 5.77288 7.33265 5.47985C7.03962 5.18683 6.875 4.7894 6.875 4.375C6.875 4.12636 6.77623 3.8879 6.60041 3.71209C6.4246 3.53627 6.18614 3.4375 5.9375 3.4375H1.875V2.1875C1.875 2.10462 1.90792 2.02513 1.96653 1.96653C2.02513 1.90792 2.10462 1.875 2.1875 1.875ZM14.6875 11.25H2.1875C2.10462 11.25 2.02513 11.2171 1.96653 11.1585C1.90792 11.0999 1.875 11.0204 1.875 10.9375V5.3125H5.12969C5.33338 6.03287 5.76666 6.66706 6.3637 7.11869C6.96073 7.57032 7.68889 7.8147 8.4375 7.8147C9.18611 7.8147 9.91427 7.57032 10.5113 7.11869C11.1083 6.66706 11.5416 6.03287 11.7453 5.3125H15V10.9375C15 11.0204 14.9671 11.0999 14.9085 11.1585C14.8499 11.2171 14.7704 11.25 14.6875 11.25Z" fill="var(--fill-0, #364C4E)"/>
</svg>
