<svg preserveAspectRatio="none" width="100%" height="100%" overflow="visible" style="display: block;" viewBox="0 0 19.9761 16.8786" fill="none" xmlns="http://www.w3.org/2000/svg">
<path id="Vector" d="M16.6271 12.0537C16.5271 11.9817 16.4139 11.9301 16.2939 11.9019C16.174 11.8737 16.0496 11.8694 15.928 11.8893C15.8064 11.9092 15.6899 11.9528 15.5852 12.0178C15.4805 12.0827 15.3896 12.1677 15.3177 12.2678C15.2412 12.3751 15.1617 12.4792 15.0794 12.5803C14.5177 11.6393 13.7065 10.8722 12.7357 10.3639C13.2325 9.82873 13.5623 9.1602 13.6845 8.44031C13.8068 7.72042 13.7162 6.98051 13.4239 6.31136C13.1317 5.64222 12.6504 5.07297 12.0392 4.67347C11.4279 4.27396 10.7134 4.0616 9.9832 4.06243C9.25301 4.06326 8.53895 4.27725 7.92864 4.67814C7.31834 5.07904 6.83836 5.64938 6.5476 6.31919C6.25684 6.989 6.16795 7.72912 6.29185 8.44873C6.41575 9.16833 6.74704 9.83611 7.24507 10.3701C6.27563 10.8778 5.46352 11.6411 4.89663 12.5771C4.10297 11.604 3.6066 10.4227 3.46694 9.17479C3.65316 9.33386 3.89422 9.41374 4.13857 9.39735C4.38292 9.38097 4.61116 9.26962 4.77447 9.08712C4.93779 8.90462 5.0232 8.66546 5.01245 8.4208C5.0017 8.17613 4.89563 7.94539 4.71694 7.77792L3.15444 6.21542C3.06735 6.12802 2.96385 6.05867 2.8499 6.01135C2.73594 5.96404 2.61377 5.93968 2.49038 5.93968C2.36699 5.93968 2.24482 5.96404 2.13086 6.01135C2.01691 6.05867 1.91342 6.12802 1.82632 6.21542L0.263818 7.77792C0.0936538 7.95375 -0.00102213 8.18914 8.32412e-06 8.43383C0.00103877 8.67852 0.0976939 8.91311 0.269333 9.0875C0.440973 9.26189 0.673993 9.36227 0.918633 9.36719C1.16327 9.37212 1.40014 9.2812 1.57866 9.11386C1.66741 10.2191 1.97339 11.2961 2.47907 12.2829C2.98475 13.2697 3.68019 14.1471 4.52554 14.8646C4.5703 14.9103 4.6195 14.9514 4.67241 14.9873C6.17921 16.2141 8.06382 16.8823 10.0069 16.8786C11.95 16.8749 13.832 16.1995 15.3341 14.967C15.3692 14.9415 15.4026 14.9139 15.4341 14.8842C15.9637 14.4373 16.436 13.9266 16.8404 13.3639C16.9125 13.2639 16.9643 13.1506 16.9926 13.0306C17.021 12.9106 17.0254 12.7862 17.0055 12.6645C16.9857 12.5428 16.9421 12.4262 16.8772 12.3214C16.8122 12.2166 16.7273 12.1256 16.6271 12.0537ZM9.98648 5.93964C10.3573 5.93964 10.7198 6.0496 11.0282 6.25563C11.3365 6.46166 11.5768 6.75449 11.7187 7.0971C11.8607 7.43972 11.8978 7.81672 11.8254 8.18043C11.7531 8.54414 11.5745 8.87824 11.3123 9.14046C11.0501 9.40269 10.716 9.58126 10.3523 9.65361C9.98856 9.72596 9.61156 9.68882 9.26894 9.54691C8.92633 9.405 8.6335 9.16467 8.42747 8.85633C8.22144 8.54799 8.11148 8.18548 8.11148 7.81464C8.11148 7.31736 8.30902 6.84044 8.66065 6.48881C9.01228 6.13718 9.48919 5.93964 9.98648 5.93964ZM9.98648 15.0021C8.67922 15.0037 7.40162 14.6126 6.31929 13.8795C6.64952 13.1867 7.16923 12.6016 7.81824 12.192C8.46725 11.7824 9.21901 11.565 9.98648 11.565C10.7539 11.565 11.5057 11.7824 12.1547 12.192C12.8037 12.6016 13.3234 13.1867 13.6537 13.8795C12.5702 14.6102 11.2933 15.0011 9.98648 15.0021ZM19.7123 9.10292L18.1498 10.6654C18.0627 10.7528 17.9592 10.8222 17.8452 10.8695C17.7313 10.9168 17.6091 10.9412 17.4857 10.9412C17.3623 10.9412 17.2401 10.9168 17.1262 10.8695C17.0122 10.8222 16.9087 10.7528 16.8216 10.6654L15.2591 9.10292C15.0804 8.93545 14.9744 8.7047 14.9636 8.46004C14.9529 8.21537 15.0383 7.97621 15.2016 7.79371C15.3649 7.61121 15.5932 7.49986 15.8375 7.48348C16.0819 7.4671 16.3229 7.54698 16.5091 7.70604C16.3617 6.38717 15.8179 5.14398 14.9495 4.14051C14.081 3.13704 12.9287 2.42044 11.6447 2.08528C10.3606 1.75011 9.0051 1.81212 7.757 2.26313C6.5089 2.71413 5.42686 3.53294 4.65366 4.61151C4.58354 4.7156 4.49323 4.80455 4.38809 4.87309C4.28295 4.94163 4.16512 4.98836 4.04158 5.01051C3.91804 5.03266 3.79132 5.02977 3.66891 5.00203C3.54651 4.97429 3.43092 4.92225 3.32901 4.84901C3.22709 4.77576 3.14092 4.6828 3.0756 4.57563C3.01028 4.46846 2.96715 4.34926 2.94876 4.22511C2.93036 4.10096 2.93709 3.97438 2.96853 3.85287C2.99997 3.73136 3.05548 3.61741 3.13179 3.51776C4.1398 2.11328 5.55491 1.05233 7.18565 0.478452C8.8164 -0.0954262 10.5841 -0.154532 12.2495 0.309131C13.9149 0.772794 15.3978 1.73685 16.4973 3.07085C17.5969 4.40486 18.2602 6.04444 18.3974 7.76776C18.5759 7.60042 18.8128 7.5095 19.0574 7.51442C19.3021 7.51935 19.5351 7.61972 19.7067 7.79412C19.8784 7.96851 19.975 8.2031 19.9761 8.44779C19.9771 8.69247 19.8824 8.92787 19.7123 9.1037V9.10292Z" fill="var(--fill-0, #364C4E)"/>
</svg>
