<svg width="24" height="24" viewBox="0 0 24 24" fill="none" xmlns="http://www.w3.org/2000/svg">
<path d="M13.675 0.440888C13.2115 0.0555845 12.5062 0.24601 12.2997 0.812203L9.90413 7.39023L7.27336 4.84112C6.89874 4.47777 6.29088 4.52312 5.97431 4.93803C3.61576 8.02832 2.41797 11.1371 2.41797 14.1773C2.41797 21.5538 10.4032 26.1641 16.7914 22.4758C19.7562 20.7641 21.5826 17.6007 21.5826 14.1773C21.5826 7.70382 16.052 2.41723 13.675 0.440888ZM18.0861 15.1943C17.6235 17.7785 15.6004 19.8011 13.0162 20.2632C12.9684 20.2714 12.9199 20.2754 12.8714 20.2751C12.2008 20.275 11.7819 19.5489 12.1173 18.9683C12.2474 18.7431 12.4712 18.5879 12.7276 18.5449C14.5319 18.2411 16.0629 16.7101 16.3689 14.9025C16.4812 14.2412 17.2674 13.9494 17.784 14.3773C18.0237 14.576 18.1382 14.8874 18.0861 15.1943Z" fill="#B42828"/>
</svg>
