<svg width="24" height="24" viewBox="0 0 24 24" fill="none" xmlns="http://www.w3.org/2000/svg">
<path d="M4.59456 7.20975H19.4033C19.6439 7.20974 19.8389 7.01474 19.8389 6.77419V1.98312C19.8389 1.02092 19.0589 0.240906 18.0967 0.240906H5.90122C4.93902 0.240906 4.159 1.02092 4.159 1.98312V6.77419C4.159 7.01474 4.35401 7.20974 4.59456 7.20975ZM7.64343 2.85422H9.35623C9.82324 2.84732 10.2163 3.20233 10.2567 3.66762C10.2902 4.17107 9.8902 4.59754 9.38563 4.59643H7.67283C7.20582 4.60333 6.8128 4.24832 6.77232 3.78303C6.73889 3.27958 7.13886 2.85311 7.64343 2.85422ZM22.4522 9.82959C22.4558 9.34594 22.0648 8.95193 21.5811 8.95196H2.4168C1.93313 8.95193 1.54207 9.34594 1.54569 9.82959C1.55128 13.7243 3.71938 17.2936 7.17303 19.0938L6.79519 21.7365C6.73816 22.1091 6.80028 22.4902 6.97268 22.8254C7.27273 23.3996 7.86664 23.7599 8.51454 23.7607H15.4463C15.8247 23.7659 16.1951 23.6516 16.5047 23.4341C17.029 23.0548 17.2998 22.4162 17.2082 21.7757L16.8249 19.0971C20.2796 17.2963 22.4478 13.7254 22.4522 9.82959ZM8.51454 22.0185L8.83358 19.7863C10.8933 20.4396 13.1046 20.4396 15.1643 19.7863L15.4834 22.0185H8.51454Z" fill="#0E8CA6"/>
</svg>
