<svg width="24" height="24" viewBox="0 0 24 24" fill="none" xmlns="http://www.w3.org/2000/svg">
<path d="M17.0402 22.9204C17.0402 23.3842 16.6642 23.7603 16.2003 23.7603H7.80128C7.15473 23.7596 6.75137 23.0593 7.07524 22.4997C7.22523 22.2405 7.50185 22.0808 7.80128 22.0805H16.2003C16.6642 22.0805 17.0402 22.4565 17.0402 22.9204ZM21.2397 9.48192C21.2471 12.3193 19.9436 15.001 17.708 16.7481C17.2899 17.0686 17.0434 17.5642 17.0402 18.0909V18.7209C17.0402 19.6486 16.2882 20.4007 15.3604 20.4007H8.64119C7.71346 20.4007 6.96138 19.6486 6.96138 18.7209V18.0909C6.96103 17.5705 6.71946 17.0796 6.3073 16.7618C4.07748 15.0252 2.77008 12.3597 2.76186 9.53336C2.73457 4.52964 6.7787 0.362663 11.7782 0.242973C16.9674 0.117929 21.2413 4.29119 21.2397 9.48192ZM15.9547 9.72759C15.6266 9.39915 15.0943 9.39915 14.7662 9.72759L12.0008 12.494L9.23542 9.72759C8.77798 9.27015 7.99688 9.47945 7.82946 10.1043C7.75175 10.3943 7.83466 10.7038 8.04696 10.9161L11.1609 14.029V17.881C11.1616 18.5275 11.8619 18.9309 12.4215 18.607C12.6807 18.457 12.8404 18.1804 12.8407 17.881V14.029L15.9547 10.9161C16.2831 10.588 16.2831 10.0557 15.9547 9.72759Z" fill="#96D23C"/>
</svg>
