<svg width="24" height="24" viewBox="0 0 24 24" fill="none" xmlns="http://www.w3.org/2000/svg">
<path d="M16.8319 4.41379C15.5349 2.91589 14.0751 1.56706 12.4796 0.39225C12.1902 0.189563 11.805 0.189563 11.5157 0.39225C9.92306 1.56755 8.46613 2.91636 7.17177 4.41379C4.28529 7.72867 2.76172 11.2231 2.76172 14.5201C2.76399 21.6332 10.4655 26.0764 16.6244 22.5179C19.481 20.8674 21.2409 17.8192 21.2419 14.5201C21.2419 11.2231 19.7183 7.72867 16.8319 4.41379ZM17.8661 15.5009C17.42 17.9927 15.4692 19.9431 12.9773 20.3886C12.9325 20.3958 12.8872 20.3997 12.8418 20.4002C12.1952 20.4 11.7912 19.6999 12.1147 19.14C12.2401 18.9229 12.4559 18.7732 12.7032 18.7317C14.4431 18.4388 15.9194 16.9625 16.2145 15.2194C16.3228 14.5817 17.0808 14.3004 17.579 14.713C17.8102 14.9046 17.9216 15.2049 17.8714 15.5009H17.8661Z" fill="#4CD0DC"/>
</svg>
