<svg width="40" height="40" viewBox="0 0 40 40" fill="none" xmlns="http://www.w3.org/2000/svg">
<rect width="40" height="40" rx="20" fill="#0E8CA6" fill-opacity="0.2"/>
<path d="M29.75 17.75H27.5V13.25H29.75C29.9489 13.25 30.1397 13.171 30.2803 13.0303C30.421 12.8897 30.5 12.6989 30.5 12.5C30.5 12.3011 30.421 12.1103 30.2803 11.9697C30.1397 11.829 29.9489 11.75 29.75 11.75H27.2966C27.1651 11.5223 26.9762 11.3332 26.7486 11.2016C26.521 11.0699 26.2629 11.0004 26 11H24.5C24.2371 11.0004 23.979 11.0699 23.7514 11.2016C23.5238 11.3332 23.3349 11.5223 23.2034 11.75H21.5C18.915 11.7527 16.4366 12.7808 14.6087 14.6087C12.7808 16.4366 11.7527 18.915 11.75 21.5V23.2025C11.5222 23.334 11.333 23.5231 11.2013 23.7509C11.0697 23.9786 11.0003 24.237 11 24.5V26C11.0003 26.263 11.0697 26.5214 11.2013 26.7491C11.333 26.9769 11.5222 27.166 11.75 27.2975V29.75C11.75 29.9489 11.829 30.1397 11.9697 30.2803C12.1103 30.421 12.3011 30.5 12.5 30.5C12.6989 30.5 12.8897 30.421 13.0303 30.2803C13.171 30.1397 13.25 29.9489 13.25 29.75V27.5H17.75V29.75C17.75 29.9489 17.829 30.1397 17.9697 30.2803C18.1103 30.421 18.3011 30.5 18.5 30.5C18.6989 30.5 18.8897 30.421 19.0303 30.2803C19.171 30.1397 19.25 29.9489 19.25 29.75V27.2975C19.4778 27.166 19.667 26.9769 19.7987 26.7491C19.9303 26.5214 19.9997 26.263 20 26V24.5C19.9997 24.237 19.9303 23.9786 19.7987 23.7509C19.667 23.5231 19.4778 23.334 19.25 23.2025V21.5C19.25 20.9033 19.4871 20.331 19.909 19.909C20.331 19.4871 20.9033 19.25 21.5 19.25H23.2034C23.3349 19.4777 23.5238 19.6668 23.7514 19.7984C23.979 19.9301 24.2371 19.9996 24.5 20H26C26.2629 19.9996 26.521 19.9301 26.7486 19.7984C26.9762 19.6668 27.1651 19.4777 27.2966 19.25H29.75C29.9489 19.25 30.1397 19.171 30.2803 19.0303C30.421 18.8897 30.5 18.6989 30.5 18.5C30.5 18.3011 30.421 18.1103 30.2803 17.9697C30.1397 17.829 29.9489 17.75 29.75 17.75ZM18.5 26H12.5V24.5H18.5V26ZM24.5 18.5V12.5H26V18.4813C26 18.4878 26 18.4934 26 18.5H24.5Z" fill="#0E8CA6"/>
</svg>
