<svg width="40" height="40" viewBox="0 0 40 40" fill="none" xmlns="http://www.w3.org/2000/svg">
<rect width="40" height="40" rx="20" fill="#96D23C" fill-opacity="0.2"/>
<path d="M24.5 29.75C24.5 29.9489 24.421 30.1396 24.2803 30.2803C24.1397 30.4209 23.9489 30.5 23.75 30.5H16.25C16.0511 30.5 15.8603 30.4209 15.7197 30.2803C15.579 30.1396 15.5 29.9489 15.5 29.75C15.5 29.551 15.579 29.3603 15.7197 29.2196C15.8603 29.079 16.0511 29 16.25 29H23.75C23.9489 29 24.1397 29.079 24.2803 29.2196C24.421 29.3603 24.5 29.551 24.5 29.75ZM28.25 17.75C28.2532 19.0002 27.9708 20.2347 27.4242 21.3592C26.8776 22.4837 26.0814 23.4685 25.0963 24.2384C24.912 24.3796 24.7626 24.561 24.6592 24.7688C24.5559 24.9767 24.5014 25.2054 24.5 25.4375V26C24.5 26.3978 24.342 26.7793 24.0607 27.0606C23.7794 27.3419 23.3978 27.5 23 27.5H17C16.6022 27.5 16.2206 27.3419 15.9393 27.0606C15.658 26.7793 15.5 26.3978 15.5 26V25.4375C15.4998 25.2081 15.4471 24.9819 15.3459 24.7762C15.2446 24.5704 15.0975 24.3906 14.9159 24.2506C13.9333 23.4852 13.1375 22.5064 12.589 21.3881C12.0405 20.2698 11.7536 19.0414 11.75 17.7959C11.7256 13.3278 15.3369 9.60683 19.8013 9.49995C20.9013 9.47345 21.9955 9.66725 23.0195 10.07C24.0434 10.4727 24.9765 11.0762 25.7638 11.8449C26.5511 12.6137 27.1766 13.5321 27.6035 14.5462C28.0305 15.5603 28.2503 16.6496 28.25 17.75ZM23.5306 17.9693C23.461 17.8996 23.3783 17.8443 23.2872 17.8065C23.1962 17.7688 23.0986 17.7494 23 17.7494C22.9014 17.7494 22.8038 17.7688 22.7128 17.8065C22.6217 17.8443 22.539 17.8996 22.4694 17.9693L20 20.4396L17.5306 17.9693C17.3899 17.8286 17.199 17.7495 17 17.7495C16.801 17.7495 16.6101 17.8286 16.4694 17.9693C16.3286 18.1101 16.2496 18.3009 16.2496 18.5C16.2496 18.699 16.3286 18.8898 16.4694 19.0306L19.25 21.8103V25.25C19.25 25.4489 19.329 25.6396 19.4697 25.7803C19.6103 25.9209 19.8011 26 20 26C20.1989 26 20.3897 25.9209 20.5303 25.7803C20.671 25.6396 20.75 25.4489 20.75 25.25V21.8103L23.5306 19.0306C23.6004 18.9609 23.6557 18.8782 23.6934 18.7872C23.7312 18.6961 23.7506 18.5985 23.7506 18.5C23.7506 18.4014 23.7312 18.3038 23.6934 18.2127C23.6557 18.1217 23.6004 18.039 23.5306 17.9693Z" fill="#96D23C"/>
</svg>
