<svg width="40" height="40" viewBox="0 0 40 40" fill="none" xmlns="http://www.w3.org/2000/svg">
<rect width="40" height="40" rx="20" fill="#B42828" fill-opacity="0.2"/>
<path d="M21.4419 9.67341C21.3494 9.59654 21.2398 9.54303 21.1224 9.51738C21.0049 9.49174 20.883 9.49471 20.7669 9.52605C20.6508 9.55739 20.544 9.61618 20.4554 9.69746C20.3668 9.77875 20.299 9.88014 20.2578 9.9931L18.1953 15.6565L15.9303 13.4618C15.8542 13.3881 15.7634 13.3312 15.6638 13.2951C15.5642 13.259 15.458 13.2444 15.3523 13.2523C15.2467 13.2602 15.1439 13.2904 15.0507 13.3409C14.9576 13.3914 14.8762 13.461 14.8119 13.5453C12.7813 16.2059 11.75 18.8825 11.75 21.5C11.75 23.688 12.6192 25.7864 14.1664 27.3336C15.7135 28.8808 17.812 29.75 20 29.75C22.188 29.75 24.2865 28.8808 25.8336 27.3336C27.3808 25.7864 28.25 23.688 28.25 21.5C28.25 15.9265 23.4884 11.375 21.4419 9.67341ZM25.2397 22.3756C25.0452 23.4619 24.5226 24.4625 23.7422 25.2428C22.9618 26.023 21.961 26.5454 20.8747 26.7397C20.8335 26.7467 20.7918 26.7502 20.75 26.75C20.5619 26.7499 20.3806 26.6792 20.2422 26.5517C20.1038 26.4243 20.0183 26.2495 20.0028 26.0621C19.9872 25.8746 20.0426 25.6881 20.1581 25.5396C20.2736 25.3911 20.4407 25.2914 20.6262 25.2603C22.1797 24.9987 23.4978 23.6806 23.7612 22.1243C23.7946 21.9282 23.9045 21.7533 24.0667 21.6381C24.229 21.5229 24.4304 21.477 24.6266 21.5103C24.8227 21.5436 24.9976 21.6535 25.1128 21.8158C25.228 21.978 25.2739 22.1794 25.2406 22.3756H25.2397Z" fill="#B42828"/>
</svg>
